<svg xmlns="http://www.w3.org/2000/svg" viewBox="0 0 1800 950" font-family="Segoe UI, Helvetica, Arial, sans-serif">
  <defs>
    <marker id="arrow" markerWidth="10" markerHeight="10" refX="8" refY="3" orient="auto" markerUnits="strokeWidth">
      <path d="M0,0 L8,3 L0,6 Z" fill="#5b6b7a"/>
    </marker>
    <marker id="arrowOrange" markerWidth="10" markerHeight="10" refX="8" refY="3" orient="auto" markerUnits="strokeWidth">
      <path d="M0,0 L8,3 L0,6 Z" fill="#d97706"/>
    </marker>
    <marker id="arrowGreen" markerWidth="10" markerHeight="10" refX="8" refY="3" orient="auto" markerUnits="strokeWidth">
      <path d="M0,0 L8,3 L0,6 Z" fill="#16a34a"/>
    </marker>
  </defs>

  <rect x="0" y="0" width="1800" height="950" fill="#ffffff"/>

  <!-- Step cards -->
  <!-- 1 Wazuh -->
  <g>
    <rect x="20" y="150" width="185" height="330" rx="14" fill="#ffffff" stroke="#dde3ea" stroke-width="2"/>
    <circle cx="50" cy="180" r="16" fill="#1e3a8a"/>
    <text x="50" y="186" text-anchor="middle" fill="white" font-size="16" font-weight="bold">1</text>
    <text x="112" y="260" text-anchor="middle" font-size="52">🛡️</text>
    <text x="112" y="310" text-anchor="middle" font-size="20" font-weight="700" fill="#1e2a3a">WAZUH</text>
    <line x1="45" y1="322" x2="180" y2="322" stroke="#dde3ea" stroke-width="1.5"/>
    <text x="112" y="345" text-anchor="middle" font-size="15" font-weight="600" fill="#1e3a8a">Detection</text>
    <text x="112" y="375" text-anchor="middle" font-size="11.5" fill="#5b6b7a">Surveillance systeme</text>
    <text x="112" y="392" text-anchor="middle" font-size="11.5" fill="#5b6b7a">en continu, genere</text>
    <text x="112" y="409" text-anchor="middle" font-size="11.5" fill="#5b6b7a">une alerte reelle</text>
  </g>

  <!-- guard 1 -->
  <g>
    <rect x="217" y="290" width="30" height="30" rx="6" fill="#eef4ff" stroke="#1e3a8a"/>
    <text x="232" y="311" text-anchor="middle" font-size="15">🛡</text>
  </g>
  <line x1="205" y1="315" x2="278" y2="315" stroke="#5b6b7a" stroke-width="2" marker-end="url(#arrow)"/>
  <text x="240" y="345" text-anchor="middle" font-size="10.5" fill="#5b6b7a">verification</text>
  <text x="240" y="358" text-anchor="middle" font-size="10.5" fill="#5b6b7a">statut HTTP</text>

  <!-- 2 Shuffle -->
  <g>
    <rect x="280" y="150" width="185" height="330" rx="14" fill="#ffffff" stroke="#dde3ea" stroke-width="2"/>
    <circle cx="310" cy="180" r="16" fill="#1e3a8a"/>
    <text x="310" y="186" text-anchor="middle" fill="white" font-size="16" font-weight="bold">2</text>
    <text x="372" y="260" text-anchor="middle" font-size="52">🧩</text>
    <text x="372" y="310" text-anchor="middle" font-size="20" font-weight="700" fill="#1e2a3a">SHUFFLE</text>
    <line x1="305" y1="322" x2="440" y2="322" stroke="#dde3ea" stroke-width="1.5"/>
    <text x="372" y="345" text-anchor="middle" font-size="15" font-weight="600" fill="#1e3a8a">Orchestration (SOAR)</text>
    <text x="372" y="375" text-anchor="middle" font-size="11.5" fill="#5b6b7a">Recoit l'alerte via</text>
    <text x="372" y="392" text-anchor="middle" font-size="11.5" fill="#5b6b7a">webhook, pilote toute</text>
    <text x="372" y="409" text-anchor="middle" font-size="11.5" fill="#5b6b7a">la chaine automatiquement</text>
  </g>

  <g>
    <rect x="477" y="290" width="30" height="30" rx="6" fill="#eef4ff" stroke="#1e3a8a"/>
    <text x="492" y="311" text-anchor="middle" font-size="15">🛡</text>
  </g>
  <line x1="465" y1="315" x2="538" y2="315" stroke="#5b6b7a" stroke-width="2" marker-end="url(#arrow)"/>
  <text x="500" y="345" text-anchor="middle" font-size="10.5" fill="#5b6b7a">verification</text>
  <text x="500" y="358" text-anchor="middle" font-size="10.5" fill="#5b6b7a">statut HTTP</text>

  <!-- 3 Gemma2 -->
  <g>
    <rect x="540" y="150" width="185" height="330" rx="14" fill="#ffffff" stroke="#dde3ea" stroke-width="2"/>
    <circle cx="570" cy="180" r="16" fill="#1e3a8a"/>
    <text x="570" y="186" text-anchor="middle" fill="white" font-size="16" font-weight="bold">3</text>
    <text x="632" y="260" text-anchor="middle" font-size="52">🧠</text>
    <text x="632" y="310" text-anchor="middle" font-size="20" font-weight="700" fill="#1e2a3a">GEMMA2 / IA</text>
    <line x1="565" y1="322" x2="700" y2="322" stroke="#dde3ea" stroke-width="1.5"/>
    <text x="632" y="345" text-anchor="middle" font-size="15" font-weight="600" fill="#1e3a8a">Triage par IA</text>
    <text x="632" y="375" text-anchor="middle" font-size="11.5" fill="#5b6b7a">LLM local (Gemma2 9B) :</text>
    <text x="632" y="392" text-anchor="middle" font-size="11.5" fill="#5b6b7a">classifie l'incident,</text>
    <text x="632" y="409" text-anchor="middle" font-size="11.5" fill="#5b6b7a">identifie la technique MITRE</text>
  </g>

  <g>
    <rect x="737" y="290" width="30" height="30" rx="6" fill="#eef4ff" stroke="#1e3a8a"/>
    <text x="752" y="311" text-anchor="middle" font-size="15">🛡</text>
  </g>
  <line x1="725" y1="315" x2="798" y2="315" stroke="#5b6b7a" stroke-width="2" marker-end="url(#arrow)"/>
  <text x="760" y="345" text-anchor="middle" font-size="10.5" fill="#5b6b7a">verification</text>
  <text x="760" y="358" text-anchor="middle" font-size="10.5" fill="#5b6b7a">statut HTTP</text>

  <!-- 4 TheHive -->
  <g>
    <rect x="800" y="150" width="185" height="330" rx="14" fill="#ffffff" stroke="#dde3ea" stroke-width="2"/>
    <circle cx="830" cy="180" r="16" fill="#1e3a8a"/>
    <text x="830" y="186" text-anchor="middle" fill="white" font-size="16" font-weight="bold">4</text>
    <text x="892" y="260" text-anchor="middle" font-size="52">💼</text>
    <text x="892" y="310" text-anchor="middle" font-size="20" font-weight="700" fill="#1e2a3a">THEHIVE</text>
    <line x1="825" y1="322" x2="960" y2="322" stroke="#dde3ea" stroke-width="1.5"/>
    <text x="892" y="345" text-anchor="middle" font-size="15" font-weight="600" fill="#1e3a8a">Gestion de cas</text>
    <text x="892" y="375" text-anchor="middle" font-size="11.5" fill="#5b6b7a">Cree automatiquement</text>
    <text x="892" y="392" text-anchor="middle" font-size="11.5" fill="#5b6b7a">un cas d'investigation</text>
    <text x="892" y="409" text-anchor="middle" font-size="11.5" fill="#5b6b7a">structure</text>
  </g>

  <g>
    <rect x="997" y="290" width="30" height="30" rx="6" fill="#eef4ff" stroke="#1e3a8a"/>
    <text x="1012" y="311" text-anchor="middle" font-size="15">🛡</text>
  </g>
  <line x1="985" y1="315" x2="1058" y2="315" stroke="#5b6b7a" stroke-width="2" marker-end="url(#arrow)"/>
  <text x="1020" y="345" text-anchor="middle" font-size="10.5" fill="#5b6b7a">verification</text>
  <text x="1020" y="358" text-anchor="middle" font-size="10.5" fill="#5b6b7a">statut HTTP</text>

  <!-- 5 Cortex -->
  <g>
    <rect x="1060" y="150" width="185" height="330" rx="14" fill="#ffffff" stroke="#dde3ea" stroke-width="2"/>
    <circle cx="1090" cy="180" r="16" fill="#1e3a8a"/>
    <text x="1090" y="186" text-anchor="middle" fill="white" font-size="16" font-weight="bold">5</text>
    <text x="1152" y="260" text-anchor="middle" font-size="52">🔎</text>
    <text x="1152" y="310" text-anchor="middle" font-size="20" font-weight="700" fill="#1e2a3a">CORTEX</text>
    <line x1="1085" y1="322" x2="1220" y2="322" stroke="#dde3ea" stroke-width="1.5"/>
    <text x="1152" y="345" text-anchor="middle" font-size="15" font-weight="600" fill="#1e3a8a">Enrichissement</text>
    <text x="1152" y="375" text-anchor="middle" font-size="11.5" fill="#5b6b7a">Analyse la reputation</text>
    <text x="1152" y="392" text-anchor="middle" font-size="11.5" fill="#5b6b7a">de l'IOC via sources</text>
    <text x="1152" y="409" text-anchor="middle" font-size="11.5" fill="#5b6b7a">externes (AbuseIPDB)</text>
  </g>

  <!-- severity branch -->
  <path d="M1247,270 L1290,270 L1290,190 L1330,190" fill="none" stroke="#d97706" stroke-width="2.5" marker-end="url(#arrowOrange)"/>
  <text x="1310" y="165" text-anchor="middle" font-size="12" font-weight="700" fill="#d97706">Severite haute</text>
  <text x="1310" y="180" text-anchor="middle" font-size="12" font-weight="700" fill="#d97706">-&gt; MISP</text>

  <path d="M1247,360 L1290,360 L1290,540 L1152,540 L1152,480" fill="none" stroke="#16a34a" stroke-width="2.5" marker-end="url(#arrowGreen)"/>
  <text x="1310" y="530" text-anchor="middle" font-size="12" font-weight="700" fill="#16a34a">Severite basse</text>
  <text x="1310" y="545" text-anchor="middle" font-size="12" font-weight="700" fill="#16a34a">-&gt; Tag simple</text>

  <!-- 6 MISP -->
  <g>
    <rect x="1320" y="150" width="185" height="330" rx="14" fill="#ffffff" stroke="#dde3ea" stroke-width="2"/>
    <circle cx="1350" cy="180" r="16" fill="#1e3a8a"/>
    <text x="1350" y="186" text-anchor="middle" fill="white" font-size="16" font-weight="bold">6</text>
    <text x="1412" y="260" text-anchor="middle" font-size="52">🔗</text>
    <text x="1412" y="310" text-anchor="middle" font-size="20" font-weight="700" fill="#1e2a3a">MISP</text>
    <line x1="1345" y1="322" x2="1480" y2="322" stroke="#dde3ea" stroke-width="1.5"/>
    <text x="1412" y="345" text-anchor="middle" font-size="15" font-weight="600" fill="#1e3a8a">Partage de renseignement</text>
    <text x="1412" y="375" text-anchor="middle" font-size="11.5" fill="#5b6b7a">Cree un evenement de</text>
    <text x="1412" y="392" text-anchor="middle" font-size="11.5" fill="#5b6b7a">threat intelligence</text>
    <text x="1412" y="409" text-anchor="middle" font-size="11.5" fill="#5b6b7a">partageable</text>
  </g>

  <g>
    <rect x="1517" y="290" width="30" height="30" rx="6" fill="#eef4ff" stroke="#1e3a8a"/>
    <text x="1532" y="311" text-anchor="middle" font-size="15">🛡</text>
  </g>
  <line x1="1505" y1="315" x2="1578" y2="315" stroke="#5b6b7a" stroke-width="2" marker-end="url(#arrow)"/>
  <text x="1540" y="345" text-anchor="middle" font-size="10.5" fill="#5b6b7a">verification</text>
  <text x="1540" y="358" text-anchor="middle" font-size="10.5" fill="#5b6b7a">statut HTTP</text>

  <!-- 7 Notification -->
  <g>
    <rect x="1580" y="150" width="185" height="330" rx="14" fill="#ffffff" stroke="#dde3ea" stroke-width="2"/>
    <circle cx="1610" cy="180" r="16" fill="#1e3a8a"/>
    <text x="1610" y="186" text-anchor="middle" fill="white" font-size="16" font-weight="bold">7</text>
    <text x="1672" y="260" text-anchor="middle" font-size="52">🔔</text>
    <text x="1672" y="310" text-anchor="middle" font-size="20" font-weight="700" fill="#1e2a3a">NOTIFICATION</text>
    <line x1="1605" y1="322" x2="1740" y2="322" stroke="#dde3ea" stroke-width="1.5"/>
    <text x="1672" y="345" text-anchor="middle" font-size="15" font-weight="600" fill="#1e3a8a">Notification finale</text>
    <text x="1672" y="375" text-anchor="middle" font-size="11.5" fill="#5b6b7a">Alerte l'analyste</text>
    <text x="1672" y="392" text-anchor="middle" font-size="11.5" fill="#5b6b7a">humain, cycle complet</text>
    <text x="1672" y="409" text-anchor="middle" font-size="11.5" fill="#5b6b7a">termine</text>
  </g>

  <!-- bottom banner -->
  <rect x="270" y="700" width="1250" height="90" rx="16" fill="#eef4ff" stroke="#c9dcff" stroke-width="1.5"/>
  <text x="320" y="735" font-size="26">🤖</text>
  <text x="895" y="735" text-anchor="middle" font-size="15" font-weight="700" fill="#1e3a8a">Pilote automatiquement par l'orchestrateur SOAR</text>
  <text x="895" y="757" text-anchor="middle" font-size="13" fill="#334155">Aucune intervention humaine entre la detection et la notification</text>

  <path d="M112,480 L112,660 L1672,660 L1672,700" fill="none" stroke="#1e3a8a" stroke-width="2"/>
</svg>
